<svg version="1.1" viewBox="0 0 1923 520" xmlns="http://www.w3.org/2000/svg" style="fill-rule:evenodd;clip-rule:evenodd;stroke-linejoin:round;stroke-miterlimit:1.41421;">
    <g transform="matrix(1.0569,0,0,1.05715,212.305,-379.573)">
        <g id="move" transform="matrix(2.68361,0,0,2.69074,918.564,666.27)">
            <path d="M8.267,0L21.333,0L21.333,-28.933C21.333,-33.733 21.6,-38.533 23.867,-41.733C25.6,-44.133 28.4,-45.867 31.6,-45.867C36.267,-45.867 38.267,-43.067 39.067,-40.933C39.6,-39.733 40.267,-37.2 40.267,-30.933L40.267,0L53.333,0L53.333,-28.933C53.333,-33.733 53.6,-38.533 55.867,-41.733C57.6,-44.133 60.4,-45.867 63.6,-45.867C68.267,-45.867 70.267,-43.067 71.067,-40.933C71.6,-39.733 72.267,-37.2 72.267,-30.933L72.267,0L85.333,0L85.333,-34.667C85.333,-42.8 83.467,-46.933 82.4,-48.8C79.2,-54.4 73.2,-57.6 66.4,-57.6C61.467,-57.6 54.4,-56 49.733,-49.333C46.533,-54.8 41.067,-57.6 35.2,-57.6C30.933,-57.6 25.733,-56.267 21.333,-50.933L21.333,-56.133L8.267,-56.133L8.267,0Z" style="fill-rule:nonzero;"/>
            <g transform="matrix(1,0,0,1,-3.52571,0)">
                <path d="M125.6,-57.6C108.667,-57.6 95.6,-45.333 95.6,-28C95.6,-10.8 108.667,1.733 125.6,1.733C142.533,1.733 155.6,-10.8 155.6,-28C155.6,-45.333 142.533,-57.6 125.6,-57.6ZM125.6,-10C115.333,-10 108.933,-17.067 108.933,-27.867C108.933,-40.667 117.333,-45.867 125.6,-45.867C133.867,-45.867 142.267,-40.667 142.267,-27.867C142.267,-17.067 135.867,-10 125.6,-10Z" style="fill-rule:nonzero;"/>
            </g>
            <g transform="matrix(1,0,0,1,-7.75656,0)">
                <path d="M158.4,-56.133L187.467,4L216.533,-56.133L201.867,-56.133L187.467,-24.133L173.067,-56.133L158.4,-56.133Z" style="fill-rule:nonzero;"/>
            </g>
            <g transform="matrix(1,0,0,1,-10.5771,0)">
                <path d="M260,-18.933C258.8,-16.8 257.067,-14.533 254.8,-12.8C252.133,-10.8 249.467,-10 245.867,-10C242.667,-10 238.933,-10.533 235.867,-13.6C233.067,-16.4 231.333,-20.933 231.067,-24.933L271.333,-24.933L271.333,-26.533C271.333,-32.4 270.667,-42.8 263.467,-50.267C260.133,-53.733 254.4,-57.6 245.467,-57.6C237.467,-57.6 231.333,-54.667 226.667,-50C220.8,-44 217.733,-35.6 217.733,-26.933C217.733,-18.533 220.667,-10.8 226,-5.467C231.333,-0.133 237.467,1.733 244.933,1.733C250.933,1.733 256.933,0.4 261.467,-2.533C265.067,-4.8 268.533,-8.533 270.933,-12.8L260,-18.933ZM232,-35.6C232.667,-38.4 234.133,-41.067 236,-42.8C237.733,-44.533 240.667,-46.4 245.2,-46.4C249.467,-46.4 252.267,-44.8 254,-43.2C256,-41.333 257.467,-38.667 258,-35.6L232,-35.6Z" style="fill-rule:nonzero;"/>
            </g>
        </g>
        <g id="open" transform="matrix(2.68361,0,0,2.69074,272.513,666.27)">
            <path d="M34.667,-55.6C18.533,-55.6 6.133,-43.2 6.133,-27.067C6.133,-10.933 18.533,1.467 34.667,1.467C50.8,1.467 63.2,-10.933 63.2,-27.067C63.2,-43.2 50.8,-55.6 34.667,-55.6ZM34.667,-3.6C21.6,-3.6 11.733,-13.867 11.733,-27.067C11.733,-40.267 21.6,-50.533 34.667,-50.533C47.733,-50.533 57.6,-40.267 57.6,-27.067C57.6,-13.867 47.733,-3.6 34.667,-3.6Z" style="fill-rule:nonzero;"/>
            <g transform="matrix(1,0,0,1,-3.52571,0)">
                <path d="M80.933,-9.733C82.533,-7.067 88.533,1.467 102,1.467C118.533,1.467 128.667,-11.6 128.667,-27.6C128.667,-43.333 118.667,-55.6 102.267,-55.6C93.6,-55.6 86.133,-52 80.933,-44.933L80.933,-54.4L75.6,-54.4L75.6,30.667L80.933,30.667L80.933,-9.733ZM101.867,-3.6C88.133,-3.6 80.667,-14.267 80.667,-27.867C80.667,-42.933 91.333,-50.533 102,-50.533C113.2,-50.533 123.067,-42.533 123.067,-27.6C123.067,-14.267 115.6,-3.6 101.867,-3.6Z" style="fill-rule:nonzero;"/>
            </g>
            <g transform="matrix(1,0,0,1,-3.52571,0)">
                <path d="M189.733,-26.533C189.733,-43.867 178.667,-55.6 164,-55.6C150.667,-55.6 137.6,-45.867 137.6,-26.933C137.6,-11.067 147.467,1.467 164.4,1.467C177.867,1.467 185.067,-7.2 188.267,-13.333L183.733,-16C180.267,-8.8 173.6,-3.6 164.8,-3.6C153.333,-3.6 143.2,-12.667 143.2,-26.533L189.733,-26.533ZM143.6,-31.6C145.067,-42.133 152.933,-50.533 164,-50.533C174.8,-50.533 182.8,-42.4 184.133,-31.6L143.6,-31.6Z" style="fill-rule:nonzero;"/>
            </g>
            <g transform="matrix(1,0,0,1,-7.05142,0)">
                <path d="M202.133,0L207.467,0L207.467,-28.267C207.467,-33.6 208,-38.667 210.4,-42.933C212.4,-46.533 216.267,-50.533 223.733,-50.533C230.267,-50.533 233.2,-47.2 234.4,-45.2C236.4,-42.133 236.533,-38 236.533,-34.267L236.533,0L241.867,0L241.867,-34.267C241.867,-39.067 241.6,-44.133 239.2,-48C238,-49.867 233.867,-55.6 224.133,-55.6C214.933,-55.6 210,-50.4 207.467,-45.867L207.467,-54.4L202.133,-54.4L202.133,0Z" style="fill-rule:nonzero;"/>
            </g>
        </g>
    </g>
    <g id="Logo" transform="matrix(7.38859,0,0,7.38859,-262.365,-221.645)">
        <g transform="matrix(1,0,0,1,101.291,84.3524)">
            <path d="M0,-29.563C0.118,-29.992 -0.447,-30.283 -0.726,-29.937C-19.127,-7.104 -41.26,-29.354 -52.475,-5.145C-52.678,-4.706 -52.146,-4.295 -51.819,-4.651C-36.841,-21.004 -8.368,0.72 0,-29.563" style="fill-rule:nonzero;"/>
        </g>
        <g transform="matrix(1,0,0,1,35.8176,58.9507)">
            <path d="M0,-27.827C-0.431,-27.716 -0.402,-27.08 0.038,-27.011C29.004,-22.439 20.746,7.839 47.323,5.495C47.806,5.452 47.897,4.786 47.424,4.68C25.782,-0.154 30.424,-35.666 0,-27.827" style="fill-rule:nonzero;"/>
        </g>
        <g transform="matrix(1,0,0,1,47.1282,42.675)">
            <path d="M0,57.57C0.303,57.895 0.848,57.566 0.699,57.147C-9.12,29.515 21.424,22.307 6.67,0.078C6.403,-0.325 5.774,-0.087 5.907,0.378C11.997,21.701 -21.419,34.585 0,57.57" style="fill-rule:nonzero;"/>
        </g>
    </g>
</svg>
