<svg version="1.1" xmlns="http://www.w3.org/2000/svg" viewBox="0 0 512 512">
    <g id="Logo" transform="matrix(0.525392,0,0,0.525392,239.188,239.188)">
        <g transform="matrix(15.2268,0,0,15.2268,-455.258,-455.254)">
            <path d="M61.903,22.544C62.01,22.154 61.496,21.889
            61.242,22.204C44.509,42.967 24.382,22.734
            14.183,44.749C13.999,45.148 14.482,45.522 14.78,45.198C28.4,30.327
            54.293,50.082 61.903,22.544"
            style="fill:rgb(3,4,4);fill-rule:nonzero;"/>
        </g>
        <g transform="matrix(15.2268,0,0,15.2268,-455.258,-455.254)">
            <path d="M2.363,1.023C1.971,1.124 1.997,1.703
            2.398,1.765C28.739,5.923 21.229,33.457 45.397,31.326C45.837,31.287
            45.919,30.681 45.489,30.584C25.809,26.189 30.03,-6.105 2.363,1.023"
            style="fill:rgb(3,4,4);fill-rule:nonzero;"/>
        </g>
        <g transform="matrix(15.2268,0,0,15.2268,-455.258,-455.254)">
            <path d="M12.648,63.88C12.924,64.176 13.419,63.877
            13.284,63.496C4.355,38.368 32.131,31.813
            18.714,11.599C18.471,11.232 17.899,11.448
            18.02,11.871C23.558,31.262 -6.83,42.978 12.648,63.88"
            style="fill:rgb(3,4,4);fill-rule:nonzero;"/>
        </g>
    </g>
</svg>
