<?xml version="1.0" encoding="UTF-8" standalone="no"?><!DOCTYPE svg PUBLIC "-//W3C//DTD SVG 1.1//EN" "http://www.w3.org/Graphics/SVG/1.1/DTD/svg11.dtd"><svg width="100%" height="100%" viewBox="0 0 1405 252" version="1.1" xmlns="http://www.w3.org/2000/svg" xmlns:xlink="http://www.w3.org/1999/xlink" xml:space="preserve" xmlns:serif="http://www.serif.com/" style="fill-rule:evenodd;clip-rule:evenodd;stroke-linejoin:round;stroke-miterlimit:2;"><g><g id="move"><path d="M688.583,190.774l37.059,0l0,-82.3c0,-13.654 0.758,-27.307 7.187,-36.41c4.916,-6.827 12.857,-11.759 21.934,-11.759c13.237,-0 18.909,7.965 21.178,14.035c1.512,3.413 3.404,10.618 3.404,28.445l-0,87.989l37.059,0l0,-82.3c0,-13.654 0.757,-27.307 7.187,-36.41c4.916,-6.827 12.857,-11.759 21.933,-11.759c13.237,-0 18.91,7.965 21.179,14.035c1.512,3.413 3.404,10.618 3.404,28.445l-0,87.989l37.059,0l-0,-98.61c-0,-23.135 -5.293,-34.891 -8.319,-40.202c-9.076,-15.929 -26.094,-25.032 -45.381,-25.032c-13.991,0 -34.036,4.551 -47.273,23.516c-9.076,-15.551 -24.579,-23.516 -41.22,-23.516c-12.102,0 -26.851,3.792 -39.331,18.965l0,-14.792l-37.059,0l0,159.671Z" style="fill-rule:nonzero;"/><g><path d="M1011.38,26.93c-48.027,0 -85.089,34.894 -85.089,84.198c0,48.926 37.062,84.576 85.089,84.576c48.028,-0 85.09,-35.65 85.09,-84.576c-0,-49.304 -37.062,-84.198 -85.09,-84.198Zm0,135.399c-29.12,0 -47.272,-20.102 -47.272,-50.823c-0,-36.41 23.825,-51.201 47.272,-51.201c23.448,-0 47.273,14.791 47.273,51.201c0,30.721 -18.152,50.823 -47.273,50.823Z" style="fill-rule:nonzero;"/></g><g><path d="M1092.41,31.103l82.443,171.049l82.44,-171.049l-41.597,0l-40.843,91.025l-40.843,-91.025l-41.6,0Z" style="fill-rule:nonzero;"/></g><g><path d="M1372.58,136.919c-3.403,6.067 -8.319,12.516 -14.749,17.446c-7.564,5.689 -15.126,7.964 -25.336,7.964c-9.076,0 -19.667,-1.516 -28.363,-10.24c-7.942,-7.965 -12.86,-20.859 -13.615,-32.237l114.207,0l0,-4.551c0,-16.689 -1.889,-46.272 -22.31,-67.512c-9.457,-9.859 -25.717,-20.859 -51.054,-20.859c-22.69,0 -40.088,8.343 -53.322,21.619c-16.641,17.067 -25.34,40.961 -25.34,65.614c0,23.894 8.322,45.891 23.448,61.06c15.126,15.173 32.524,20.481 53.7,20.481c17.017,-0 34.035,-3.792 46.895,-12.135c10.211,-6.448 20.041,-17.067 26.849,-29.204l-31.01,-17.446Zm-79.416,-47.409c1.891,-7.965 6.049,-15.551 11.345,-20.481c4.915,-4.929 13.237,-10.24 26.094,-10.24c12.102,-0 20.044,4.551 24.959,9.102c5.673,5.311 9.834,12.894 11.346,21.619l-73.744,-0Z" style="fill-rule:nonzero;"/></g></g><g id="open"><path d="M80.65,32.619c-45.761,0 -80.931,35.272 -80.931,81.163c0,45.893 35.17,81.165 80.931,81.165c45.758,0 80.929,-35.272 80.929,-81.165c-0,-45.891 -35.171,-81.163 -80.929,-81.163Zm0,147.915c-37.062,0 -65.048,-29.205 -65.048,-66.752c0,-37.548 27.986,-66.75 65.048,-66.75c37.059,0 65.045,29.202 65.045,66.75c0,37.547 -27.986,66.752 -65.045,66.752Z" style="fill-rule:nonzero;"/><g><path d="M201.875,163.089c4.538,7.583 21.556,31.858 59.752,31.858c46.893,0 75.636,-37.169 75.636,-82.681c0,-44.753 -28.363,-79.647 -74.878,-79.647c-24.583,0 -45.761,10.241 -60.51,30.343l-0,-26.929l-15.126,-0l-0,241.974l15.126,0l-0,-114.918Zm59.375,17.445c-38.954,0 -60.13,-30.342 -60.13,-69.028c0,-42.855 30.252,-64.474 60.507,-64.474c31.767,0 59.753,22.757 59.753,65.234c-0,37.926 -21.179,68.268 -60.13,68.268Z" style="fill-rule:nonzero;"/></g><g><path d="M510.465,115.301c0,-49.307 -31.386,-82.682 -72.987,-82.682c-37.816,0 -74.878,27.686 -74.878,81.544c-0,45.131 27.986,80.784 76.013,80.784c38.196,0 58.618,-24.653 67.694,-42.099l-12.86,-7.586c-9.83,20.481 -28.74,35.272 -53.7,35.272c-32.523,0 -61.264,-25.791 -61.264,-65.233l131.982,-0Zm-130.847,-14.413c4.161,-29.962 26.471,-53.856 57.86,-53.856c30.633,0 53.323,23.135 57.104,53.856l-114.964,-0Z" style="fill-rule:nonzero;"/></g><g><path d="M535.635,190.774l15.129,0l0,-80.406c0,-15.169 1.512,-29.583 8.319,-41.717c5.673,-10.241 16.641,-21.619 37.817,-21.619c18.532,0 26.851,9.481 30.254,15.17c5.673,8.724 6.05,20.481 6.05,31.099l0,97.473l15.129,0l0,-97.473c0,-13.653 -0.757,-28.064 -7.564,-39.063c-3.404,-5.311 -15.126,-21.619 -42.735,-21.619c-26.094,0 -40.085,14.792 -47.27,27.686l0,-24.272l-15.129,-0l0,154.741Z" style="fill-rule:nonzero;"/></g></g></g></svg>