<svg version="1.1" viewBox="0 0 1169 1169" xmlns="http://www.w3.org/2000/svg" style="fill-rule:evenodd;clip-rule:evenodd;stroke-linejoin:round;stroke-miterlimit:1.41421;">
    <g id="Logo" transform="matrix(10.8681,0,0,10.8681,-70.3456,-89.9117)">
        <g transform="matrix(1,0,0,1,101.291,84.3524)">
            <path d="M0,-29.563C0.118,-29.992 -0.447,-30.283 -0.726,-29.937C-19.127,-7.104 -41.26,-29.354 -52.475,-5.145C-52.678,-4.706 -52.146,-4.295 -51.819,-4.651C-36.841,-21.004 -8.368,0.72 0,-29.563" style="fill-rule:nonzero;"/>
        </g>
        <g transform="matrix(1,0,0,1,35.8176,58.9507)">
            <path d="M0,-27.827C-0.431,-27.716 -0.402,-27.08 0.038,-27.011C29.004,-22.439 20.746,7.839 47.323,5.495C47.806,5.452 47.897,4.786 47.424,4.68C25.782,-0.154 30.424,-35.666 0,-27.827" style="fill-rule:nonzero;"/>
        </g>
        <g transform="matrix(1,0,0,1,47.1282,42.675)">
            <path d="M0,57.57C0.303,57.895 0.848,57.566 0.699,57.147C-9.12,29.515 21.424,22.307 6.67,0.078C6.403,-0.325 5.774,-0.087 5.907,0.378C11.997,21.701 -21.419,34.585 0,57.57" style="fill-rule:nonzero;"/>
        </g>
    </g>
    <path d="M584.5,23C893.848,23 1145,274.152 1145,583.5C1145,892.848 893.848,1144 584.5,1144C275.152,1144 24,892.848 24,583.5C24,274.152 275.152,23 584.5,23ZM584.5,73.441C866.009,73.441 1094.56,301.991 1094.56,583.5C1094.56,865.009 866.009,1093.56 584.5,1093.56C302.991,1093.56 74.441,865.009 74.441,583.5C74.441,301.991 302.991,73.441 584.5,73.441Z"/>
    <g transform="matrix(-1.397e-17,1,-1,-1.397e-17,1176.08,-44.6046)">
        <g transform="matrix(0.848866,0.529236,-0.529061,0.848584,349.419,972)">
            <path d="M14.817,-9.658C16.405,-7.012 22.358,1.455 35.72,1.455C52.124,1.455 62.179,-11.51 62.179,-27.385C62.179,-42.996 52.257,-55.167 35.984,-55.167C27.385,-55.167 19.977,-51.595 14.817,-44.583L14.817,-53.976L9.525,-53.976L9.525,30.428L14.817,30.428L14.817,-9.658ZM35.587,-3.572C21.961,-3.572 14.552,-14.156 14.552,-27.65C14.552,-42.599 25.136,-50.14 35.72,-50.14C46.832,-50.14 56.622,-42.202 56.622,-27.385C56.622,-14.156 49.214,-3.572 35.587,-3.572Z" style="fill-rule:nonzero;"/>
        </g>
        <g transform="matrix(0.911395,0.412339,-0.412202,0.911093,405.145,1006.95)">
            <path d="M53.447,-44.583C48.288,-51.86 40.879,-55.167 32.412,-55.167C16.669,-55.167 6.086,-43.657 6.086,-26.988C6.086,-9.261 18.257,1.455 32.412,1.455C39.424,1.455 48.023,-1.323 53.447,-9.658L53.447,0L58.739,0L58.739,-53.976L53.447,-53.976L53.447,-44.583ZM32.677,-50.14C41.938,-50.14 53.712,-43.393 53.712,-27.385C53.712,-14.949 46.303,-3.572 32.809,-3.572C19.183,-3.572 11.642,-15.214 11.642,-27.385C11.642,-42.07 21.961,-50.14 32.677,-50.14Z" style="fill-rule:nonzero;"/>
        </g>
        <g transform="matrix(0.953493,0.302516,-0.302415,0.953176,465.927,1033.61)">
            <path d="M9.525,0L14.817,0L14.817,-28.973C14.817,-35.72 14.949,-50.14 25.798,-50.14C28.179,-50.14 29.237,-49.478 29.766,-49.081L32.412,-53.844C30.428,-54.902 28.179,-55.167 26.724,-55.167C20.903,-55.167 16.801,-51.595 14.817,-46.965L14.817,-53.976L9.525,-53.976L9.525,0Z" style="fill-rule:nonzero;"/>
        </g>
        <g transform="matrix(0.977222,0.213777,-0.213706,0.976898,497.545,1044.5)">
            <path d="M9.525,-96.443L9.525,0L14.817,0L14.817,-23.945L17.595,-26.724L44.187,0L51.33,0L21.167,-30.56L43.922,-53.976L37.043,-53.976L14.817,-30.825L14.817,-96.443L9.525,-96.443Z" style="fill-rule:nonzero;"/>
        </g>
        <g transform="matrix(0.995398,0.099233,-0.0992001,0.995068,546.71,1056.1)">
            <path d="M34.397,-55.167C18.389,-55.167 6.086,-42.864 6.086,-26.856C6.086,-10.848 18.389,1.455 34.397,1.455C50.404,1.455 62.708,-10.848 62.708,-26.856C62.708,-42.864 50.404,-55.167 34.397,-55.167ZM34.397,-3.572C21.432,-3.572 11.642,-13.759 11.642,-26.856C11.642,-39.953 21.432,-50.14 34.397,-50.14C47.362,-50.14 57.151,-39.953 57.151,-26.856C57.151,-13.759 47.362,-3.572 34.397,-3.572Z" style="fill-rule:nonzero;"/>
        </g>
        <g transform="matrix(0.999925,-0.0285418,0.0285323,0.999593,612.804,1062.49)">
            <path d="M9.525,-53.976L9.525,-19.977C9.525,-15.611 9.922,-9.922 13.626,-5.16C17.728,0.132 24.21,1.455 28.973,1.455C33.735,1.455 40.218,0.132 44.319,-5.16C48.023,-9.922 48.42,-15.611 48.42,-19.977L48.42,-53.976L43.128,-53.976L43.128,-21.432C43.128,-17.595 42.996,-11.907 39.689,-7.938C36.381,-3.969 31.486,-3.572 28.973,-3.572C26.459,-3.572 21.564,-3.969 18.257,-7.938C14.949,-11.907 14.817,-17.595 14.817,-21.432L14.817,-53.976L9.525,-53.976Z" style="fill-rule:nonzero;"/>
        </g>
        <g transform="matrix(0.991719,-0.13099,0.130946,0.991389,669.422,1060.53)">
            <path d="M9.525,0L14.817,0L14.817,-28.973C14.817,-35.72 14.949,-50.14 25.798,-50.14C28.179,-50.14 29.237,-49.478 29.766,-49.081L32.412,-53.844C30.428,-54.902 28.179,-55.167 26.724,-55.167C20.903,-55.167 16.801,-51.595 14.817,-46.965L14.817,-53.976L9.525,-53.976L9.525,0Z" style="fill-rule:nonzero;"/>
        </g>
        <g transform="matrix(0.96959,-0.24609,0.246008,0.969268,734.389,1049.89)">
            <path d="M5.16,-33.735C5.16,-31.056 7.243,-28.973 9.922,-28.973C12.601,-28.973 14.685,-31.056 14.685,-33.735C14.685,-36.414 12.601,-38.498 9.922,-38.498C7.243,-38.498 5.16,-36.414 5.16,-33.735Z" style="fill-rule:nonzero;"/>
        </g>
        <g transform="matrix(0.920462,-0.391681,0.391551,0.920157,782.053,1037.23)">
            <path d="M53.447,-44.583C48.288,-51.86 40.879,-55.167 32.412,-55.167C16.669,-55.167 6.086,-43.657 6.086,-26.988C6.086,-9.261 18.257,1.455 32.412,1.455C39.424,1.455 48.023,-1.323 53.447,-9.658L53.447,0L58.739,0L58.739,-53.976L53.447,-53.976L53.447,-44.583ZM32.677,-50.14C41.938,-50.14 53.712,-43.393 53.712,-27.385C53.712,-14.949 46.303,-3.572 32.809,-3.572C19.183,-3.572 11.642,-15.214 11.642,-27.385C11.642,-42.07 21.961,-50.14 32.677,-50.14Z" style="fill-rule:nonzero;"/>
        </g>
        <g transform="matrix(0.857131,-0.515743,0.515571,0.856847,842.245,1011.57)">
            <path d="M53.447,-44.583C49.214,-50.669 42.334,-55.167 32.545,-55.167C19.447,-55.167 6.086,-46.965 6.086,-27.253C6.086,-8.335 18.918,1.455 32.545,1.455C39.424,1.455 48.023,-1.323 53.447,-9.658L53.447,0L58.739,0L58.739,-96.443L53.447,-96.443L53.447,-44.583ZM32.545,-50.14C45.906,-50.14 53.712,-39.953 53.712,-27.385C53.712,-11.642 43.525,-3.572 32.809,-3.572C21.961,-3.572 11.642,-11.642 11.642,-27.385C11.642,-42.467 21.432,-50.14 32.545,-50.14Z" style="fill-rule:nonzero;"/>
        </g>
        <g transform="matrix(0.777611,-0.629274,0.629065,0.777352,898.392,977.718)">
            <path d="M53.447,-44.583C49.214,-50.669 42.334,-55.167 32.545,-55.167C19.447,-55.167 6.086,-46.965 6.086,-27.253C6.086,-8.335 18.918,1.455 32.545,1.455C39.424,1.455 48.023,-1.323 53.447,-9.658L53.447,0L58.739,0L58.739,-96.443L53.447,-96.443L53.447,-44.583ZM32.545,-50.14C45.906,-50.14 53.712,-39.953 53.712,-27.385C53.712,-11.642 43.525,-3.572 32.809,-3.572C21.961,-3.572 11.642,-11.642 11.642,-27.385C11.642,-42.467 21.432,-50.14 32.545,-50.14Z" style="fill-rule:nonzero;"/>
        </g>
        <g transform="matrix(0.0273532,-0.999959,0.999626,0.0273441,1097.28,638.268)">
            <path d="M33.607,-53.9C17.967,-53.9 5.946,-41.879 5.946,-26.239C5.946,-10.599 17.967,1.422 33.607,1.422C49.247,1.422 61.267,-10.599 61.267,-26.239C61.267,-41.879 49.247,-53.9 33.607,-53.9ZM33.607,-3.49C20.939,-3.49 11.375,-13.443 11.375,-26.239C11.375,-39.035 20.939,-48.988 33.607,-48.988C46.274,-48.988 55.839,-39.035 55.839,-26.239C55.839,-13.443 46.274,-3.49 33.607,-3.49Z" style="fill-rule:nonzero;"/>
        </g>
        <g transform="matrix(-0.110624,-0.994197,0.993866,-0.110587,1099.34,573.858)">
            <path d="M14.477,-9.436C16.028,-6.851 21.844,1.422 34.899,1.422C50.927,1.422 60.75,-11.245 60.75,-26.756C60.75,-42.008 51.056,-53.9 35.158,-53.9C26.756,-53.9 19.518,-50.41 14.477,-43.559L14.477,-52.736L9.306,-52.736L9.306,29.729L14.477,29.729L14.477,-9.436ZM34.77,-3.49C21.456,-3.49 14.218,-13.83 14.218,-27.015C14.218,-41.62 24.559,-48.988 34.899,-48.988C45.757,-48.988 55.322,-41.233 55.322,-26.756C55.322,-13.83 48.083,-3.49 34.77,-3.49Z" style="fill-rule:nonzero;"/>
        </g>
        <g transform="matrix(-0.237383,-0.971759,0.971435,-0.237304,1092.39,510.06)">
            <path d="M56.485,-25.722C56.485,-42.525 45.757,-53.9 31.538,-53.9C18.613,-53.9 5.946,-44.464 5.946,-26.11C5.946,-10.728 15.511,1.422 31.926,1.422C44.981,1.422 51.961,-6.98 55.063,-12.926L50.668,-15.511C47.308,-8.531 40.845,-3.49 32.314,-3.49C21.198,-3.49 11.375,-12.279 11.375,-25.722L56.485,-25.722ZM11.762,-30.634C13.184,-40.845 20.81,-48.988 31.538,-48.988C42.008,-48.988 49.764,-41.103 51.056,-30.634L11.762,-30.634Z" style="fill-rule:nonzero;"/>
        </g>
        <g transform="matrix(-0.355008,-0.935219,0.934908,-0.35489,1078.08,451.63)">
            <path d="M9.306,0L14.477,0L14.477,-27.402C14.477,-32.573 14.994,-37.484 17.32,-41.62C19.259,-45.11 23.008,-48.988 30.246,-48.988C36.579,-48.988 39.423,-45.757 40.586,-43.818C42.525,-40.845 42.654,-36.838 42.654,-33.219L42.654,0L47.825,0L47.825,-33.219C47.825,-37.872 47.566,-42.784 45.24,-46.532C44.076,-48.342 40.069,-53.9 30.634,-53.9C21.715,-53.9 16.933,-48.859 14.477,-44.464L14.477,-52.736L9.306,-52.736L9.306,0Z" style="fill-rule:nonzero;"/>
        </g>
        <g transform="matrix(-0.491605,-0.8712,0.870911,-0.491442,1060.29,400.529)">
            <path d="M8.014,0L20.681,0L20.681,-28.049C20.681,-32.702 20.939,-37.355 23.137,-40.457C24.817,-42.784 27.532,-44.464 30.634,-44.464C35.158,-44.464 37.096,-41.75 37.872,-39.682C38.389,-38.518 39.035,-36.062 39.035,-29.987L39.035,0L51.702,0L51.702,-28.049C51.702,-32.702 51.961,-37.355 54.158,-40.457C55.839,-42.784 58.553,-44.464 61.655,-44.464C66.179,-44.464 68.118,-41.75 68.893,-39.682C69.41,-38.518 70.057,-36.062 70.057,-29.987L70.057,0L82.724,0L82.724,-33.607C82.724,-41.491 80.914,-45.498 79.88,-47.308C76.778,-52.736 70.962,-55.839 64.369,-55.839C59.587,-55.839 52.736,-54.288 48.212,-47.825C45.11,-53.124 39.811,-55.839 34.124,-55.839C29.987,-55.839 24.946,-54.546 20.681,-49.376L20.681,-54.417L8.014,-54.417L8.014,0Z" style="fill-rule:nonzero;"/>
        </g>
        <g transform="matrix(-0.62462,-0.781354,0.781095,-0.624413,1017.01,325.055)">
            <path d="M34.253,-55.839C17.837,-55.839 5.17,-43.947 5.17,-27.144C5.17,-10.47 17.837,1.68 34.253,1.68C50.668,1.68 63.335,-10.47 63.335,-27.144C63.335,-43.947 50.668,-55.839 34.253,-55.839ZM34.253,-9.694C24.3,-9.694 18.096,-16.545 18.096,-27.015C18.096,-39.423 26.239,-44.464 34.253,-44.464C42.267,-44.464 50.41,-39.423 50.41,-27.015C50.41,-16.545 44.206,-9.694 34.253,-9.694Z" style="fill-rule:nonzero;"/>
        </g>
        <g transform="matrix(-0.719349,-0.695128,0.694897,-0.719109,975.595,273.551)">
            <path d="M0.776,-54.417L28.953,3.878L57.131,-54.417L42.913,-54.417L28.953,-23.395L14.994,-54.417L0.776,-54.417Z" style="fill-rule:nonzero;"/>
        </g>
        <g transform="matrix(-0.798768,-0.602191,0.601991,-0.798503,935.657,234.585)">
            <path d="M46.144,-18.354C44.981,-16.286 43.301,-14.089 41.103,-12.409C38.518,-10.47 35.933,-9.694 32.443,-9.694C29.341,-9.694 25.722,-10.211 22.749,-13.184C20.035,-15.898 18.354,-20.293 18.096,-24.171L57.131,-24.171L57.131,-25.722C57.131,-31.409 56.485,-41.491 49.505,-48.73C46.274,-52.09 40.716,-55.839 32.055,-55.839C24.3,-55.839 18.354,-52.995 13.83,-48.471C8.143,-42.654 5.17,-34.511 5.17,-26.11C5.17,-17.967 8.014,-10.47 13.184,-5.299C18.354,-0.129 24.3,1.68 31.538,1.68C37.355,1.68 43.172,0.388 47.566,-2.456C51.056,-4.653 54.417,-8.272 56.743,-12.409L46.144,-18.354ZM19.001,-34.511C19.647,-37.226 21.069,-39.811 22.878,-41.491C24.559,-43.172 27.402,-44.981 31.797,-44.981C35.933,-44.981 38.648,-43.43 40.328,-41.879C42.267,-40.069 43.689,-37.484 44.206,-34.511L19.001,-34.511Z" style="fill-rule:nonzero;"/>
        </g>
        <g transform="matrix(-0.850456,-0.526678,0.526503,-0.850173,886.263,198.323)">
            <path d="M8.272,-3.878C8.272,-1.163 10.34,0.905 13.055,0.905C15.769,0.905 17.837,-1.163 17.837,-3.878C17.837,-6.592 15.769,-8.66 13.055,-8.66C10.34,-8.66 8.272,-6.592 8.272,-3.878Z" style="fill-rule:nonzero;"/>
        </g>
        <g transform="matrix(-0.877632,-0.480029,0.47987,-0.87734,863.665,184.384)">
            <path d="M9.306,-52.736L9.306,0L14.477,0L14.477,-52.736L9.306,-52.736ZM11.892,-65.533C14.477,-65.533 16.545,-67.472 16.545,-70.315C16.545,-73.159 14.477,-75.098 11.892,-75.098C9.306,-75.098 7.238,-73.159 7.238,-70.315C7.238,-67.472 9.306,-65.533 11.892,-65.533Z" style="fill-rule:nonzero;"/>
        </g>
        <g transform="matrix(-0.903041,-0.430327,0.430184,-0.902741,842.55,172.774)">
            <path d="M24.042,-47.825L24.042,-52.736L14.864,-52.736L14.864,-71.608L9.694,-71.608L9.694,-52.736L3.878,-52.736L3.878,-47.825L9.694,-47.825L9.694,0L14.864,0L14.864,-47.825L24.042,-47.825Z" style="fill-rule:nonzero;"/>
        </g>
    </g>
</svg>
