<?xml version="1.0" encoding="UTF-8" standalone="no"?><!DOCTYPE svg PUBLIC "-//W3C//DTD SVG 1.1//EN" "http://www.w3.org/Graphics/SVG/1.1/DTD/svg11.dtd"><svg width="100%" height="100%" viewBox="0 0 67 71" version="1.1" xmlns="http://www.w3.org/2000/svg" xmlns:xlink="http://www.w3.org/1999/xlink" xml:space="preserve" xmlns:serif="http://www.serif.com/" style="fill-rule:evenodd;clip-rule:evenodd;stroke-linejoin:round;stroke-miterlimit:1.41421;"><g id="Logo"><path d="M66.011,25.029c0.118,-0.429 -0.447,-0.72 -0.726,-0.374c-18.401,22.833 -40.534,0.583 -51.749,24.792c-0.203,0.439 0.329,0.85 0.656,0.494c14.978,-16.353 43.451,5.371 51.819,-24.912" style="fill:#030404;fill-rule:nonzero;"/><path d="M0.538,1.364c-0.431,0.111 -0.402,0.747 0.038,0.816c28.966,4.572 20.708,34.85 47.285,32.506c0.483,-0.043 0.574,-0.709 0.101,-0.815c-21.642,-4.834 -17,-40.346 -47.424,-32.507" style="fill:#030404;fill-rule:nonzero;"/><path d="M11.848,70.485c0.303,0.325 0.848,-0.004 0.699,-0.423c-9.819,-27.632 20.725,-34.84 5.971,-57.069c-0.267,-0.403 -0.896,-0.165 -0.763,0.3c6.09,21.323 -27.326,34.207 -5.907,57.192" style="fill:#030404;fill-rule:nonzero;"/></g></svg>